Gang Leader (1991) DvdRip Telugu Movie - teluguppls


General

Format : MPEG-4
Format profile : Base Media
Codec ID : isom
File size : 700 MiB
Duration : 2h 33mn
Overall bit rate : 637 Kbps


Video

Format : AVC
Format settings, ReFrames : 5 frames
Duration : 2h 33mn
Bit rate mode : Variable
Bit rate : 572 Kbps
Maximum bit rate : 2 534 Kbps
Width : 640 pixels
Height : 336 pixels
Display aspect ratio : 1.905
Frame rate mode : Constant
Frame rate : 23.976 fps
Color space : YUV
Chroma subsampling : 4:2:0
Bit depth : 8 bits
Scan type : Progressive
Bits/(Pixel*Frame) : 0.111
Stream size : 628 MiB (90%)


Audio

Format : AAC
Duration : 2h 33mn
Bit rate mode : Variable
Bit rate : 62.8 Kbps
Maximum bit rate : 80.5 Kbps
Channel(s) : 2 channels
Channel positions : Front: L R
Sampling rate : 44.1 KHz
Compression mode : Lossy
Stream size : 69.0 MiB (10%)


PLEASE SEEDDDDDD..............


POST A COMMENT..........